# Wavefront OBJ exported by MilkShape 3D

mtllib revolver.mtl

v -1.888800 1.744700 -2.395000
v -1.535000 2.132600 -2.395000
v -1.535000 2.132600 -11.515000
v -1.035300 2.115200 -11.515000
v -1.035300 2.115200 -2.395000
v -0.698800 1.723200 -11.515000
v -0.698800 1.723200 -2.395000
v -0.440900 1.944300 -11.515000
v -0.440900 1.944300 -2.395000
v -0.070800 1.941400 -11.515000
v -0.070800 1.941400 -2.395000
v 0.190000 1.672100 -11.515000
v 0.190000 1.672100 -2.395000
v 0.187100 1.302000 -11.515000
v 0.187100 1.302000 -2.395000
v -0.072600 1.030900 -11.515000
v -0.072600 1.030900 -2.395000
v -0.442700 1.033800 -11.515000
v -0.442700 1.033800 -2.395000
v -0.704100 1.283100 -11.515000
v -0.704200 1.283100 -2.395000
v -1.066500 0.935500 -11.515000
v -1.066500 0.935500 -2.395000
v -1.566200 0.953000 -11.515000
v -1.566200 0.953000 -2.395000
v -1.902400 1.355000 -11.515000
v -1.902400 1.355000 -2.395000
v -2.007900 1.198500 2.755000
v -1.900100 1.134700 3.185000
v -1.986300 1.818200 2.755000
v -1.873900 1.884300 3.185000
v -1.621600 1.085000 3.455000
v -1.592700 1.914500 3.455000
v -1.943200 1.046200 3.965000
v -1.910700 1.975600 3.965000
v -2.000700 1.118200 4.455000
v -1.973100 1.907800 4.455000
v -1.617100 1.214900 4.925000
v -1.597200 1.784600 4.925000
v -1.711200 1.098100 4.275000
v -1.672600 1.917300 4.275000
v -1.431400 1.088400 3.855000
v -1.403100 1.897900 3.855000
v -0.791400 1.076000 3.435000
v -0.763900 1.865500 3.435000
v -0.240400 1.096800 3.935000
v -0.206000 1.796000 3.935000
v 0.325300 2.107700 -2.405000
v -0.804400 2.137100 2.885000
v 1.985600 2.089700 -2.025000
v 0.855600 2.109200 2.885000
v 0.025800 2.128100 3.505000
v 1.319900 2.223000 4.075000
v -0.464300 2.135200 4.555000
v 1.310900 2.253400 4.805000
v -0.004600 2.119200 5.715000
v 2.475100 2.352800 5.835000
v 1.774400 2.057100 6.905000
v 3.900900 2.493100 6.135000
v 4.108100 1.835500 7.505000
v 6.177700 2.363600 5.875000
v 6.896400 1.738100 7.865000
v 6.642400 1.917100 4.155000
v 6.860100 0.698800 7.865000
v 4.071800 0.796100 7.505000
v 6.157100 0.052900 5.865000
v 3.819200 0.154500 6.135000
v 1.727900 0.727900 6.905000
v 2.406400 0.384000 5.835000
v -0.041000 0.789700 5.715000
v 1.252300 0.574400 4.805000
v -0.500300 0.815700 4.555000
v 1.263300 0.604000 4.075000
v -0.021000 0.789000 3.505000
v 0.807800 0.740000 2.885000
v -0.640300 0.820600 2.885000
v -0.513500 3.017500 1.805000
v 0.812200 2.010600 1.805000
v 0.355500 2.687000 1.805000
v 0.762400 0.871700 1.805000
v 0.250300 0.249200 1.805000
v -0.649200 -0.009600 1.805000
v -1.528200 0.321300 1.805000
v -1.974900 0.997300 1.805000
v -1.925100 2.136200 1.805000
v -1.412700 2.768700 1.805000
v -0.513500 3.017500 -1.275000
v -1.925100 2.136200 -1.275000
v -1.412700 2.768700 -1.275000
v -1.974900 0.997300 -1.275000
v -1.528200 0.321300 -1.275000
v -0.649200 -0.009600 -1.275000
v 0.250300 0.249200 -1.275000
v 0.762400 0.871700 -1.275000
v 0.812200 2.010600 -1.275000
v 0.355500 2.687000 -1.275000
v 1.947800 0.720200 -0.625000
v 3.332200 1.682500 -0.205000
v 3.319200 1.022500 -0.205000
v 3.949200 1.010500 1.115000
v 3.971900 1.660100 1.115000
v 3.509100 1.015900 2.355000
v 3.542100 1.675100 2.355000
v 1.957800 0.719900 2.655000
v 2.004200 2.049000 2.655000
v 2.004200 2.049000 2.385000
v 3.332200 1.682500 2.155000
v 1.957800 0.719900 2.385000
v 3.299200 1.023200 2.165000
v 3.702000 1.669600 1.115000
v 3.679300 1.020000 1.115000
v 3.132400 1.689500 -0.045000
v 3.109300 1.029900 -0.045000
v 1.957800 0.719900 -0.205000
v -0.597500 1.759700 2.885000
v -0.618400 1.160000 2.885000
v 6.593900 0.527900 4.155000
v 4.447300 0.662900 4.665000
v 2.073300 0.875900 4.065000
v -1.888800 1.744700 -11.515000
v 4.492000 1.942200 4.665000
v 2.100300 1.935600 4.075000
v 2.006000 2.099000 2.655000
v 1.956100 0.669900 2.655000
v -2.457100 0.944100 -2.385000
v -1.897400 0.924500 -2.365000
v -2.479500 0.874800 2.705000
v 0.278800 0.778500 -2.405000
v 1.936400 0.680600 -2.025000
v -0.590600 0.808800 2.635000
v -0.160000 0.533600 2.325000
v 0.099300 0.794800 2.325000
v -0.604600 0.409100 2.325000
v -1.049100 0.574700 2.325000
v -1.290200 0.833300 2.325000
v -0.545300 2.108100 2.635000
v -0.975600 2.393200 2.325000
v -1.234800 2.132100 2.325000
v -0.520600 2.527400 2.325000
v -0.086100 2.362200 2.325000
v 0.154300 2.083600 2.325000
v -1.855500 2.123800 -2.365000
v -2.434500 2.164000 2.705000
v -2.415200 2.143300 -2.385000
v 3.340000 1.332000 1.155000
v 2.660100 1.345700 1.725000
v 2.620100 1.347100 1.405000
v 1.960500 1.370200 1.475000
v 1.980500 1.369500 1.845000
v -2.713800 1.043100 1.295000
v -2.453900 1.034000 1.035000
v -2.713800 1.043100 2.575000
v -2.453900 1.034000 2.575000
v -2.418000 2.063400 2.575000
v -2.418000 2.063400 1.035000
v -2.677800 2.072500 2.575000
v -2.677800 2.072500 1.295000
v -3.017400 1.804100 2.395000
v -2.689000 1.752700 2.245000
v -3.017400 1.804100 2.575000
v -2.689000 1.752700 2.575000
v -2.677800 2.072500 2.245000
v -3.009400 2.034000 2.575000
v -3.009400 2.034000 2.395000
v -3.041800 1.104600 2.395000
v -2.713800 1.043100 2.245000
v -3.041800 1.104600 2.575000
v -2.702200 1.372900 2.575000
v -2.702200 1.372900 2.245000
v -3.033800 1.334400 2.575000
v -3.033800 1.334400 2.395000
v -3.067100 1.525700 -11.225000
v -2.417500 1.503000 -11.225000
v -3.047100 1.525000 -10.795000
v -2.417500 1.503000 -9.925000
v -2.411600 1.672900 -9.925000
v -2.411600 1.672900 -11.225000
v -3.041200 1.694900 -10.795000
v -3.061200 1.695600 -11.225000
v -2.422400 1.363100 -11.515000
v -2.422400 1.363100 -2.395000
v -2.418800 1.753200 -11.515000
v -2.418800 1.753200 -2.395000
v -0.046000 0.359600 1.805000
v -0.611900 0.199200 1.805000
v -1.184900 0.409300 1.805000
v -1.089600 2.567300 1.805000
v -0.513600 2.727300 1.805000
v 0.049400 2.517600 1.805000
v 1.994200 2.049400 -0.625000
v 2.004200 2.049000 -0.205000
v 0.288800 0.778100 1.805000
v -1.479700 0.849900 1.805000
v -1.424400 2.148800 1.805000
v 0.334500 2.087300 1.805000
# 195 vertices

vt 0.460900 0.882800
vt 0.460900 0.843800
vt 0.000000 0.843800
vt 0.000000 0.796900
vt 0.460900 0.796900
vt 0.000000 0.757800
vt 0.460900 0.757800
vt 0.000000 0.734400
vt 0.460900 0.734400
vt 0.000000 0.695300
vt 0.460900 0.695300
vt 0.000000 0.671900
vt 0.460900 0.671900
vt 0.000000 0.882800
vt 0.312500 0.460900
vt 0.304700 0.484400
vt 0.359400 0.460900
vt 0.359400 0.484400
vt 0.312500 0.531300
vt 0.359400 0.531300
vt 0.312500 0.554700
vt 0.359400 0.554700
vt 0.304700 0.593800
vt 0.351600 0.585900
vt 0.304700 0.625000
vt 0.351600 0.625000
vt 0.304700 0.585900
vt 0.304700 0.554700
vt 0.351600 0.554700
vt 0.304700 0.531300
vt 0.351600 0.531300
vt 0.351600 0.484400
vt 0.460900 0.656300
vt 0.734400 0.773400
vt 0.484400 0.492200
vt 0.734400 0.609400
vt 0.765600 0.687500
vt 0.796900 0.562500
vt 0.820300 0.742200
vt 0.828100 0.562500
vt 0.875000 0.695300
vt 0.882800 0.445300
vt 0.937500 0.515600
vt 0.898400 0.304700
vt 0.968800 0.281300
vt 0.882800 0.078100
vt 0.984400 0.007800
vt 0.796900 0.015600
vt 0.882800 0.070300
vt 0.820300 0.734400
vt 0.734400 0.750000
vt 0.679700 0.750000
vt 0.679700 0.609400
vt 0.679700 0.656300
vt 0.679700 0.664100
vt 0.679700 0.835900
vt 0.679700 0.882800
vt 0.523400 0.750000
vt 0.523400 0.882800
vt 0.523400 0.835900
vt 0.523400 0.664100
vt 0.523400 0.609400
vt 0.523400 0.656300
vt 0.351600 0.445300
vt 0.382800 0.390600
vt 0.382800 0.445300
vt 0.429700 0.445300
vt 0.429700 0.390600
vt 0.476600 0.445300
vt 0.476600 0.390600
vt 0.507800 0.445300
vt 0.507800 0.390600
vt 0.710900 0.492200
vt 0.695300 0.359400
vt 0.640600 0.320300
vt 0.585900 0.382800
vt 0.585900 0.375000
vt 0.578100 0.492200
vt 0.273400 0.609400
vt 0.218800 0.578100
vt 0.234400 0.625000
vt 0.171900 0.617200
vt 0.164100 0.539100
vt 0.117200 0.562500
vt 0.015600 0.468800
vt 0.078100 0.601600
vt 0.015600 0.617200
vt 0.015600 0.492200
vt 0.078100 0.593800
vt 0.125000 0.578100
vt 0.273400 0.601600
vt 0.820300 0.242200
vt 0.796900 0.484400
vt 0.046900 0.132800
vt 0.007800 0.210900
vt 0.007800 0.164100
vt 0.039100 0.242200
vt 0.078100 0.250000
vt 0.117200 0.218800
vt 0.117200 0.171900
vt 0.085900 0.132800
vt 0.164100 0.132800
vt 0.148400 0.179700
vt 0.140600 0.156300
vt 0.164100 0.203100
vt 0.195300 0.203100
vt 0.210900 0.179700
vt 0.210900 0.156300
vt 0.195300 0.132800
vt 0.554700 0.109400
vt 0.382800 0.109400
vt 0.382800 0.007800
vt 0.195300 0.007800
vt 0.195300 0.109400
vt 0.000000 0.007800
vt 0.000000 0.109400
vt 0.367200 0.234400
vt 0.546900 0.132800
vt 0.546900 0.234400
vt 0.367200 0.132800
vt 0.234400 0.132800
vt 0.234400 0.234400
vt 0.460900 0.929700
vt 0.460900 0.875000
vt 0.726600 0.937500
vt 0.718800 0.492200
vt 0.718800 0.750000
vt 0.703100 0.703100
vt 0.703100 0.679700
vt 0.703100 0.750000
vt 0.703100 0.789100
vt 0.703100 0.820300
vt 0.703100 0.812500
vt 0.703100 0.742200
vt 0.703100 0.335900
vt 0.640600 0.296900
vt 0.578100 0.359400
vt 0.640600 0.359400
vt 0.671900 0.421900
vt 0.656300 0.429700
vt 0.664100 0.492200
vt 0.679700 0.492200
vt 0.328100 0.359400
vt 0.328100 0.320300
vt 0.523400 0.359400
vt 0.523400 0.320300
vt 0.460900 0.492200
vt 0.414100 0.492200
vt 0.414100 0.656300
vt 0.734400 0.023400
vt 0.734400 0.117200
vt 0.570300 0.023400
vt 0.570300 0.117200
vt 0.914100 0.898400
vt 0.914100 0.796900
vt 0.937500 0.898400
vt 0.945300 0.789100
vt 0.757800 0.898400
vt 0.757800 0.796900
vt 0.757800 0.132800
vt 0.757800 0.234400
vt 0.281300 0.304700
vt 0.281300 0.250000
vt 0.546900 0.304700
vt 0.546900 0.250000
vt 0.468800 0.992200
vt 0.468800 0.937500
vt 0.695300 0.992200
vt 0.695300 0.937500
vt 0.523400 0.367200
vt 0.546900 0.367200
vt 0.546900 0.320300
vt 0.046900 0.375000
vt 0.015600 0.312500
vt 0.187500 0.375000
vt 0.187500 0.312500
vt 0.234400 0.367200
vt 0.234400 0.453100
vt 0.187500 0.367200
vt 0.187500 0.453100
vt 0.046900 0.367200
vt 0.046900 0.453100
vt 0.000000 0.367200
vt 0.000000 0.453100
vt 0.265600 0.359400
vt 0.265600 0.328100
vt 0.296900 0.367200
vt 0.304700 0.328100
vt 0.320300 0.421900
vt 0.304700 0.359400
vt 0.296900 0.414100
vt 0.265600 0.367200
vt 0.265600 0.414100
vt 0.242200 0.367200
vt 0.242200 0.414100
vt 0.320300 0.359400
vt 0.296900 0.359400
vt 0.242200 0.359400
vt 0.046900 0.359400
vt 0.039100 0.320300
vt 0.195300 0.367200
vt 0.226600 0.320300
vt 0.195300 0.453100
vt 0.039100 0.367200
vt 0.039100 0.445300
vt 0.000000 0.445300
vt 0.000000 0.937500
vt 0.453100 0.937500
vt 0.000000 1.000000
vt 0.460900 0.992200
vt 0.000000 0.929700
vt 0.789100 0.710900
vt 0.679700 0.687500
vt 0.679700 0.804700
vt 0.679700 0.742200
vt 0.554700 0.007800
vt 0.351600 0.390600
vt 0.554700 0.492200
vt 0.125000 0.468800
vt 0.125000 0.492200
vt 0.125000 0.460900
# 221 texture coordinates

vn -0.734400 0.678800 -0.000000
vn -0.246700 0.969100 -0.000000
vn -0.522000 0.853000 -0.000000
vn 0.292700 0.956200 0.000000
vn 0.557100 0.830500 0.000000
vn 0.389200 0.921200 0.000000
vn -0.454500 0.890700 -0.000000
vn 0.256400 0.966600 0.000000
vn 0.514000 0.857800 0.000000
vn 0.868100 0.496300 0.000000
vn 0.968900 0.247600 0.000000
vn 0.968500 -0.249000 0.000000
vn 0.867800 -0.496900 0.000000
vn 0.514500 -0.857500 0.000000
vn 0.257800 -0.966200 0.000000
vn -0.244700 -0.969600 -0.000000
vn -0.490600 -0.871400 -0.000000
vn -0.303400 -0.952900 -0.000000
vn 0.299400 -0.954100 0.000000
vn 0.481200 -0.876600 0.000000
vn 0.221100 -0.975200 0.012800
vn -0.563300 -0.826300 -0.000000
vn -0.765900 -0.643000 -0.000000
vn -0.708900 -0.698500 0.097900
vn -0.765800 -0.563000 0.310900
vn -0.849900 0.484600 0.207000
vn -0.634200 0.623300 0.457500
vn -0.539100 -0.821100 0.187300
vn -0.510600 0.832300 -0.215800
vn -0.608000 -0.735100 -0.299900
vn -0.610400 0.772400 -0.175700
vn -0.790900 -0.558400 0.250400
vn -0.644700 0.586800 0.489800
vn -0.208700 -0.529300 0.822400
vn 0.774500 0.523400 0.355300
vn 0.672500 -0.715900 0.187900
vn 0.654000 0.657900 0.373500
vn 0.418400 -0.819400 0.391800
vn 0.415000 0.796600 0.439600
vn 0.113500 -0.659500 0.743100
vn -0.183700 0.665000 0.723900
vn -0.065100 -0.670900 0.738700
vn 0.839300 0.532600 -0.109500
vn 0.030100 0.999500 -0.005200
vn -0.003600 0.998500 -0.053900
vn -0.048200 0.998600 -0.020900
vn 0.086700 0.995300 -0.044000
vn 0.050700 0.995900 -0.075200
vn -0.222500 0.903600 0.366100
vn -0.281000 0.573800 0.769300
vn -0.002900 0.999500 0.030100
vn -0.083300 0.516600 0.852200
vn 0.162700 0.986300 0.025900
vn 0.463300 0.519100 0.718300
vn 0.739800 0.492100 -0.458900
vn 0.768500 -0.575400 0.279900
vn -0.104900 -0.505100 0.856700
vn -0.082600 -0.996400 0.021100
vn -0.265000 -0.556000 0.787800
vn -0.111000 -0.993200 -0.036300
vn -0.365600 -0.756500 0.542300
vn -0.003000 -0.996500 -0.083600
vn 0.034400 -0.998800 -0.035000
vn -0.075700 -0.995800 -0.051300
vn -0.034900 -0.999400 -0.000000
vn -0.000000 -0.000000 1.000000
vn -0.015000 0.000500 -0.999900
vn 0.236500 -0.007500 -0.971600
vn 0.587600 -0.019400 -0.808900
vn 0.970600 -0.035300 -0.238100
vn 0.993300 -0.040500 0.107900
vn 0.737200 -0.028000 0.675100
vn 0.453100 -0.015700 0.891300
vn 0.152700 -0.005300 0.988300
vn -0.132000 0.004600 -0.991200
vn -0.437400 0.015000 -0.899100
vn -0.729100 0.027600 -0.683900
vn -0.993100 0.040500 -0.110200
vn -0.969300 0.035200 0.243300
vn -0.529900 0.015800 0.847900
vn -0.082500 -0.003400 0.996600
vn 0.245700 0.936200 -0.251200
vn 0.326100 -0.894100 -0.306900
vn -0.774200 0.632900 -0.000000
vn -0.631500 0.775400 -0.000000
vn 0.700300 0.713900 0.000000
vn 0.830600 0.556900 0.000000
vn 0.774200 -0.632900 0.000000
vn 0.631500 -0.775400 0.000000
vn 0.064200 -0.997900 0.000000
vn -0.170800 -0.985300 -0.000000
vn -0.533000 -0.846100 -0.000000
vn -0.700300 -0.713900 -0.000000
vn -0.830600 -0.556900 -0.000000
vn 0.486000 -0.605400 -0.630300
vn -0.045300 -0.651700 -0.757100
vn 0.467700 -0.737500 -0.487100
vn 0.009900 0.477700 -0.878500
vn 0.370600 0.851900 -0.370000
vn 0.778000 0.624500 -0.068700
vn 0.370800 -0.928500 -0.020900
vn -0.015800 -0.410500 0.911700
vn 0.222200 -0.408300 0.885400
vn 0.299900 -0.302300 0.904800
vn -0.021800 -0.505700 0.862400
vn -0.252800 -0.389300 0.885700
vn -0.317900 -0.281300 0.905400
vn 0.015700 0.402400 0.915300
vn -0.221600 0.400600 0.889000
vn -0.300600 0.294600 0.907100
vn 0.021500 0.498100 0.866900
vn 0.251900 0.381300 0.889500
vn 0.318600 0.272500 0.907900
vn 0.179300 -0.006300 -0.983800
vn -0.892000 0.024000 0.451300
vn -0.958500 -0.122400 0.257500
vn -0.981300 -0.049000 0.186000
vn -0.993300 0.024900 0.112500
vn 0.999400 -0.035100 -0.004600
vn -0.999400 0.035400 -0.006100
vn 0.022100 -0.000800 -0.999800
vn -0.611700 0.021400 -0.790800
vn -0.119900 0.992800 -0.000000
vn -0.327100 0.011400 -0.944900
vn -0.733500 0.025600 0.679200
vn -0.998100 0.034900 0.051400
vn 0.240500 -0.867000 0.436400
vn -0.315100 -0.842800 0.436400
vn -0.240500 0.867000 0.436400
vn 0.315100 0.842800 0.436400
vn 0.200700 0.954600 -0.220100
vn 0.250200 0.897100 0.364200
vn 0.149500 -0.959000 -0.240700
vn 0.141600 -0.946300 0.290600
vn 0.736800 -0.578300 0.350200
vn 0.629800 -0.635000 0.447300
vn -0.747100 -0.500900 0.437000
vn -0.711000 -0.629100 0.314200
vn -0.733200 0.576800 0.360300
vn 0.747100 0.500900 0.437000
vn 0.717100 0.613300 0.331100
# 141 normals

g w_python_reference.bmp
usemtl w_python_reference.bmp
s 1
f 1/1/1 2/2/2 3/3/3
f 3/3/3 2/2/2 4/4/4
f 2/2/2 5/5/5 4/4/4
f 4/4/4 5/5/5 6/6/6
f 5/5/5 7/7/2 6/6/6
f 6/6/6 7/7/2 8/8/7
f 7/7/2 9/9/2 8/8/7
f 8/8/7 9/9/2 10/10/8
f 9/9/2 11/11/9 10/10/8
f 10/10/8 11/11/9 12/12/10
f 11/11/9 13/13/11 12/12/10
f 12/12/10 13/13/11 14/12/12
f 13/13/11 15/13/13 14/12/12
f 14/12/12 15/13/13 16/10/14
f 15/13/13 17/11/15 16/10/14
f 16/10/14 17/11/15 18/8/16
f 17/11/15 19/9/17 18/8/16
f 18/8/16 19/9/17 20/6/18
f 19/9/17 21/7/19 20/6/18
f 20/6/18 21/7/19 22/4/20
f 21/7/19 23/5/21 22/4/20
f 22/4/20 23/5/21 24/3/18
f 23/5/21 25/2/22 24/3/18
f 24/3/18 25/2/22 26/14/23
f 25/2/22 27/1/23 26/14/23
f 28/15/24 29/16/25 30/17/26
f 30/17/26 29/16/25 31/18/27
f 29/16/25 32/19/28 31/18/27
f 31/18/27 32/19/28 33/20/29
f 32/19/28 34/21/30 33/20/29
f 33/20/29 34/21/30 35/22/31
f 34/21/30 36/23/32 35/22/31
f 35/22/31 36/23/32 37/24/33
f 36/23/32 38/25/34 37/24/33
f 37/24/33 38/25/34 39/26/35
f 38/25/34 40/27/36 39/26/35
f 39/26/35 40/27/36 41/24/37
f 40/27/36 42/28/38 41/24/37
f 41/24/37 42/28/38 43/29/39
f 42/28/38 44/30/40 43/29/39
f 43/29/39 44/30/40 45/31/41
f 44/30/40 46/16/42 45/31/41
f 45/31/41 46/16/42 47/32/43
f 48/33/44 49/34/44 50/35/44
f 50/35/44 49/34/44 51/36/45
f 49/34/44 52/37/46 51/36/45
f 51/36/45 52/37/46 53/38/47
f 52/37/46 54/39/46 53/38/47
f 53/38/47 54/39/46 55/40/48
f 54/39/46 56/41/49 55/40/48
f 55/40/48 56/41/49 57/42/46
f 56/41/49 58/43/50 57/42/46
f 57/42/46 58/43/50 59/44/51
f 58/43/50 60/45/52 59/44/51
f 59/44/51 60/45/52 61/46/53
f 60/45/52 62/47/54 61/46/53
f 61/46/53 62/47/54 63/48/55
f 64/47/56 65/45/57 66/49/21
f 66/49/21 65/45/57 67/44/58
f 65/45/57 68/43/59 67/44/58
f 67/44/58 68/43/59 69/42/60
f 68/43/59 70/41/61 69/42/60
f 69/42/60 70/41/61 71/40/62
f 70/41/61 72/50/60 71/40/62
f 71/40/62 72/50/60 73/38/63
f 72/50/60 74/37/60 73/38/63
f 73/38/63 74/37/60 75/36/64
f 74/37/60 76/51/65 75/36/64
f 77/52/66 78/53/66 79/54/66
f 77/52/66 80/53/66 78/53/66
f 77/52/66 81/55/66 80/53/66
f 77/52/66 82/52/66 81/55/66
f 77/52/66 83/56/66 82/52/66
f 77/52/66 84/57/66 83/56/66
f 77/52/66 85/57/66 84/57/66
f 77/52/66 86/56/66 85/57/66
f 87/58/67 88/59/67 89/60/67
f 87/58/67 90/59/67 88/59/67
f 87/58/67 91/60/67 90/59/67
f 87/58/67 92/58/67 91/60/67
f 87/58/67 93/61/67 92/58/67
f 87/58/67 94/62/67 93/61/67
f 87/58/67 95/62/67 94/62/67
f 87/58/67 96/63/67 95/62/67
f 97/64/68 98/65/69 99/66/69
f 99/66/69 98/65/69 100/67/70
f 98/65/69 101/68/71 100/67/70
f 100/67/70 101/68/71 102/69/72
f 101/68/71 103/70/73 102/69/72
f 102/69/72 103/70/73 104/71/74
f 103/70/73 105/72/74 104/71/74
f 106/73/75 107/74/76 108/73/75
f 108/73/75 107/74/76 109/74/77
f 107/74/76 110/75/78 109/74/77
f 109/74/77 110/75/78 111/75/79
f 110/75/78 112/76/80 111/75/79
f 111/75/79 112/76/80 113/77/80
f 112/76/80 114/78/81 113/77/80
f 39/79/35 41/80/37 37/81/33
f 37/81/33 41/80/37 35/82/31
f 41/80/37 43/83/39 35/82/31
f 35/82/31 43/83/39 33/84/29
f 43/83/39 115/85/82 33/84/29
f 33/84/29 115/85/82 31/86/27
f 115/85/82 30/87/26 31/86/27
f 28/87/24 116/88/83 29/89/25
f 29/89/25 116/88/83 32/90/28
f 116/88/83 42/83/38 32/90/28
f 32/90/28 42/83/38 34/82/30
f 42/83/38 40/80/36 34/82/30
f 34/82/30 40/80/36 36/81/32
f 40/80/36 38/91/34 36/81/32
f 85/57/84 86/56/7 89/60/85
f 89/60/85 86/56/7 87/58/46
f 86/56/7 77/52/53 87/58/46
f 87/58/46 77/52/53 96/63/5
f 77/52/53 79/54/86 96/63/5
f 96/63/5 79/54/86 95/62/87
f 79/54/86 78/53/87 95/62/87
f 80/53/88 81/55/20 93/61/89
f 93/61/89 81/55/20 92/58/90
f 81/55/20 82/52/91 92/58/90
f 92/58/90 82/52/91 91/60/92
f 82/52/91 83/56/93 91/60/92
f 91/60/92 83/56/93 90/59/94
f 83/56/93 84/57/94 90/59/94
f 64/47/56 66/49/21 117/48/95
f 117/48/95 66/49/21 118/92/96
f 66/49/21 67/44/58 118/92/96
f 118/92/96 67/44/58 119/93/97
f 67/44/58 69/42/60 119/93/97
f 119/93/97 69/42/60 71/40/62
f 6/94/67 3/95/67 4/96/67
f 6/94/67 120/97/67 3/95/67
f 6/94/67 26/98/67 120/97/67
f 6/94/67 24/99/67 26/98/67
f 6/94/67 22/100/67 24/99/67
f 6/94/67 20/101/67 22/100/67
f 12/102/67 8/103/67 10/104/67
f 12/102/67 6/105/67 8/103/67
f 12/102/67 20/106/67 6/105/67
f 12/102/67 18/107/67 20/106/67
f 12/102/67 16/108/67 18/107/67
f 12/102/67 14/109/67 16/108/67
f 62/110/54 60/111/52 65/112/57
f 65/112/57 60/111/52 68/113/59
f 60/111/52 58/114/50 68/113/59
f 68/113/59 58/114/50 70/115/61
f 58/114/50 56/116/49 70/115/61
f 63/48/55 121/92/98 61/46/53
f 61/46/53 121/92/98 59/44/51
f 121/92/98 122/93/99 59/44/51
f 59/44/51 122/93/99 57/42/46
f 122/93/99 55/40/48 57/42/46
f 119/117/97 121/118/98 118/119/96
f 119/117/97 122/120/99 121/118/98
f 119/117/97 123/121/100 122/120/99
f 119/117/97 124/122/101 123/121/100
f 125/123/65 126/124/65 127/125/65
f 127/125/65 126/124/65 76/51/65
f 126/124/65 128/33/65 76/51/65
f 76/51/65 128/33/65 129/35/65
f 71/40/62 73/38/63 119/93/97
f 119/93/97 73/38/63 124/126/101
f 73/38/63 75/36/64 124/126/101
f 124/126/101 75/36/64 129/35/65
f 130/127/102 131/128/103 132/129/104
f 130/127/102 133/130/105 131/128/103
f 130/127/102 134/131/106 133/130/105
f 130/127/102 135/132/107 134/131/106
f 136/127/108 137/131/109 138/133/110
f 136/127/108 139/134/111 137/131/109
f 136/127/108 140/128/112 139/134/111
f 136/127/108 141/129/113 140/128/112
f 51/36/45 53/38/47 123/126/100
f 123/126/100 53/38/47 122/93/99
f 53/38/47 55/40/48 122/93/99
f 48/33/44 142/124/44 49/34/44
f 49/34/44 142/124/44 143/125/44
f 142/124/44 144/123/44 143/125/44
f 103/135/44 101/136/44 110/75/44
f 110/75/44 101/136/44 112/76/44
f 101/136/44 98/137/44 112/76/44
f 109/74/65 111/75/65 100/136/65
f 100/136/65 111/75/65 99/137/65
f 111/75/65 113/77/65 99/137/65
f 145/138/65 146/139/65 147/140/65
f 147/140/65 146/139/65 148/141/65
f 146/139/65 149/142/65 148/141/65
f 145/138/44 147/140/44 146/139/44
f 146/139/44 147/140/44 149/142/44
f 147/140/44 148/141/44 149/142/44
f 48/143/67 128/144/67 142/145/67
f 142/145/67 128/144/67 126/146/67
f 50/147/114 129/148/114 48/33/114
f 48/33/114 129/148/114 128/149/114
f 62/150/54 64/151/56 63/152/55
f 63/152/55 64/151/56 117/153/95
f 54/154/115 72/155/115 56/156/115
f 56/156/115 72/155/115 70/157/115
f 49/158/116 76/159/117 54/154/117
f 54/154/117 76/159/117 72/155/118
f 76/159/81 49/158/81 127/157/81
f 127/157/81 49/158/81 143/156/81
f 63/160/55 117/161/95 121/118/98
f 121/118/98 117/161/95 118/119/96
f 129/162/119 50/163/119 124/164/119
f 124/164/119 50/163/119 123/165/119
f 144/166/120 125/167/120 143/168/120
f 143/168/120 125/167/120 127/169/120
f 142/170/121 126/146/121 144/171/121
f 144/171/121 126/146/121 125/172/121
f 150/173/65 151/174/65 152/175/65
f 152/175/65 151/174/65 153/176/65
f 154/176/44 155/174/44 156/175/44
f 156/175/44 155/174/44 157/173/44
f 153/177/66 154/178/66 152/179/66
f 152/179/66 154/178/66 156/180/66
f 150/181/122 157/182/122 151/183/122
f 151/183/122 157/182/122 155/184/122
f 152/179/120 156/180/120 150/181/120
f 150/181/120 156/180/120 157/182/120
f 158/185/91 159/186/91 160/187/91
f 160/187/91 159/186/91 161/188/91
f 156/188/123 162/186/123 163/187/123
f 163/187/123 162/186/123 164/185/123
f 161/143/66 156/189/66 160/190/66
f 160/190/66 156/189/66 163/191/66
f 158/192/124 164/193/124 159/194/124
f 159/194/124 164/193/124 162/195/124
f 160/190/120 163/191/120 158/192/120
f 158/192/120 163/191/120 164/193/120
f 165/185/91 166/186/91 167/187/91
f 167/187/91 166/186/91 152/188/91
f 168/188/123 169/186/123 170/187/123
f 170/187/123 169/186/123 171/185/123
f 152/196/66 168/189/66 167/197/66
f 167/197/66 168/189/66 170/191/66
f 165/185/124 171/193/124 166/198/124
f 166/198/124 171/193/124 169/195/124
f 167/197/120 170/191/120 165/185/120
f 165/185/120 170/191/120 171/193/120
f 172/199/65 173/200/65 174/201/65
f 174/201/65 173/200/65 175/202/65
f 176/202/44 177/200/44 178/201/44
f 178/201/44 177/200/44 179/199/44
f 175/177/125 176/178/125 174/201/125
f 174/201/125 176/178/125 178/203/125
f 172/204/67 179/205/67 173/183/67
f 173/183/67 179/205/67 177/206/67
f 174/201/126 178/203/126 172/204/126
f 172/204/126 178/203/126 179/205/126
f 180/207/120 181/208/120 182/209/120
f 182/209/120 181/208/120 183/210/120
f 120/14/51 182/211/51 1/1/51
f 1/1/51 182/211/51 183/123/51
f 27/1/65 181/123/65 26/14/65
f 26/14/65 181/123/65 180/211/65
f 26/14/67 180/211/67 120/14/67
f 120/14/67 180/211/67 182/211/67
f 1/1/66 183/123/66 27/1/66
f 27/1/66 183/123/66 181/123/66
f 115/51/82 47/212/43 116/51/83
f 116/51/83 47/212/43 46/212/42
f 184/213/127 131/128/127 185/52/127
f 185/52/127 131/128/127 133/130/127
f 185/52/128 133/130/128 186/214/128
f 186/214/128 133/130/128 134/131/128
f 187/214/129 137/131/129 188/215/129
f 188/215/129 137/131/129 139/134/129
f 188/215/130 139/134/130 189/213/130
f 189/213/130 139/134/130 140/128/130
f 64/216/56 62/110/54 65/112/57
f 54/39/46 52/37/46 49/34/44
f 51/36/44 123/126/44 50/35/44
f 72/50/60 76/51/65 74/37/60
f 117/48/95 64/47/56 66/49/21
f 76/51/65 129/35/65 75/36/65
f 120/14/1 1/1/1 3/3/3
f 97/64/68 190/217/68 98/65/69
f 114/78/81 112/76/80 191/78/81
f 106/73/4 105/126/4 107/74/4
f 107/74/131 105/126/131 103/135/131
f 107/74/44 103/135/44 110/75/44
f 191/78/4 98/137/4 190/218/4
f 112/76/132 98/137/132 191/78/132
f 109/74/21 104/126/21 108/73/21
f 102/135/133 104/126/133 109/74/133
f 102/135/65 109/74/65 100/136/65
f 99/137/134 113/77/134 97/218/134
f 97/218/15 113/77/15 114/78/15
f 43/83/39 45/219/41 115/85/82
f 115/88/82 45/220/41 47/221/43
f 42/83/38 116/88/83 44/220/40
f 116/88/83 46/221/42 44/220/40
f 88/59/84 85/57/84 89/60/85
f 94/62/88 80/53/88 93/61/89
f 132/129/135 184/213/135 192/54/135
f 184/213/136 132/129/136 131/128/136
f 134/131/137 193/56/137 186/214/137
f 193/56/138 134/131/138 135/132/138
f 138/133/139 187/214/139 194/56/139
f 187/214/27 138/133/27 137/131/27
f 140/128/140 195/54/140 189/213/140
f 195/54/141 140/128/141 141/129/141
# 305 triangles in group

# 305 triangles total

